REM DIRINDEX 1\2,1\3\5,1\3\6,1\4\7,1\4\8
REM DIRNAME folder01,folder02,folder03,folder04,folder05,folder06,folder07,folder08
TITLE ""
FILE "JE_07.mp3" MP3
  TRACK 01 AUDIO
    TITLE "0:"
    INDEX 01 00:00:00
  TRACK 02 AUDIO
    TITLE "7:cjc139_2978"
    INDEX 01 00:00:17
  TRACK 03 AUDIO
    TITLE "0:"
    INDEX 01 00:03:47
  TRACK 04 AUDIO
    TITLE "8:cjc139_2979"
    INDEX 01 00:06:35
  TRACK 05 AUDIO
    TITLE "0:"
    INDEX 01 00:09:14
  TRACK 06 AUDIO
    TITLE "7:cjc139_2980"
    INDEX 01 00:12:01
  TRACK 07 AUDIO
    TITLE "0:"
    INDEX 01 00:14:11
  TRACK 08 AUDIO
    TITLE "8:cjc139_2981"
    INDEX 01 00:16:73
  TRACK 09 AUDIO
    TITLE "0:"
    INDEX 01 00:19:44
  TRACK 10 AUDIO
    TITLE "7:cjc139_2982"
    INDEX 01 00:22:29
  TRACK 11 AUDIO
    TITLE "0:"
    INDEX 01 00:25:31
  TRACK 12 AUDIO
    TITLE "8:cjc139_2983"
    INDEX 01 00:28:17
  TRACK 13 AUDIO
    TITLE "0:"
    INDEX 01 00:30:48
  TRACK 14 AUDIO
    TITLE "7:cjc139_2984"
    INDEX 01 00:33:34
  TRACK 15 AUDIO
    TITLE "0:"
    INDEX 01 00:36:40
  TRACK 16 AUDIO
    TITLE "8:cjc139_2985"
    INDEX 01 00:39:25
  TRACK 17 AUDIO
    TITLE "0:"
    INDEX 01 00:41:73
  TRACK 18 AUDIO
    TITLE "7:cjc139_2986"
    INDEX 01 00:44:58
  TRACK 19 AUDIO
    TITLE "0:"
    INDEX 01 00:48:18
  TRACK 20 AUDIO
    TITLE "8:cjc139_2987"
    INDEX 01 00:51:03
  TRACK 21 AUDIO
    TITLE "0:"
    INDEX 01 00:53:55
  TRACK 22 AUDIO
    TITLE "7:cjc139_2988"
    INDEX 01 00:56:41
  TRACK 23 AUDIO
    TITLE "0:"
    INDEX 01 00:59:00
  TRACK 24 AUDIO
    TITLE "8:cjc139_2989"
    INDEX 01 01:01:62
  TRACK 25 AUDIO
    TITLE "0:"
    INDEX 01 01:03:65
  TRACK 26 AUDIO
    TITLE "7:cjc139_2990"
    INDEX 01 01:06:53
  TRACK 27 AUDIO
    TITLE "0:"
    INDEX 01 01:08:44
  TRACK 28 AUDIO
    TITLE "8:cjc139_2991"
    INDEX 01 01:11:29
  TRACK 29 AUDIO
    TITLE "0:"
    INDEX 01 01:13:30
  TRACK 30 AUDIO
    TITLE "7:cjc139_2992"
    INDEX 01 01:16:16
  TRACK 31 AUDIO
    TITLE "0:"
    INDEX 01 01:19:52
  TRACK 32 AUDIO
    TITLE "8:cjc139_2993"
    INDEX 01 01:22:35
  TRACK 33 AUDIO
    TITLE "0:"
    INDEX 01 01:25:58
  TRACK 34 AUDIO
    TITLE "7:cjc139_2994"
    INDEX 01 01:28:43
  TRACK 35 AUDIO
    TITLE "0:"
    INDEX 01 01:31:61
  TRACK 36 AUDIO
    TITLE "8:cjc139_2995"
    INDEX 01 01:34:48
  TRACK 37 AUDIO
    TITLE "0:"
    INDEX 01 01:37:01
  TRACK 38 AUDIO
    TITLE "7:cjc139_2996"
    INDEX 01 01:39:64
  TRACK 39 AUDIO
    TITLE "0:"
    INDEX 01 01:43:15
  TRACK 40 AUDIO
    TITLE "8:cjc139_2997"
    INDEX 01 01:46:00
  TRACK 41 AUDIO
    TITLE "0:"
    INDEX 01 01:48:73
  TRACK 42 AUDIO
    TITLE "7:cjc139_2998"
    INDEX 01 01:51:60
  TRACK 43 AUDIO
    TITLE "0:"
    INDEX 01 01:54:03
  TRACK 44 AUDIO
    TITLE "8:cjc139_2999"
    INDEX 01 01:56:63
  TRACK 45 AUDIO
    TITLE "0:"
    INDEX 01 01:58:48
  TRACK 46 AUDIO
    TITLE "7:cjc139_3000"
    INDEX 01 02:01:35
  TRACK 47 AUDIO
    TITLE "0:"
    INDEX 01 02:04:68
  TRACK 48 AUDIO
    TITLE "8:cjc139_3001"
    INDEX 01 02:07:53
  TRACK 49 AUDIO
    TITLE "0:"
    INDEX 01 02:10:51
  TRACK 50 AUDIO
    TITLE "7:cjc139_3002"
    INDEX 01 02:13:36
  TRACK 51 AUDIO
    TITLE "0:"
    INDEX 01 02:16:52
  TRACK 52 AUDIO
    TITLE "8:cjc139_3003"
    INDEX 01 02:19:35
  TRACK 53 AUDIO
    TITLE "0:"
    INDEX 01 02:21:69
  TRACK 54 AUDIO
    TITLE "7:cjc139_3004"
    INDEX 01 02:24:51
  TRACK 55 AUDIO
    TITLE "0:"
    INDEX 01 02:27:32
  TRACK 56 AUDIO
    TITLE "8:cjc139_3005"
    INDEX 01 02:30:17
  TRACK 57 AUDIO
    TITLE "0:"
    INDEX 01 02:32:20
  TRACK 58 AUDIO
    TITLE "7:cjc139_3006"
    INDEX 01 02:35:08
  TRACK 59 AUDIO
    TITLE "0:"
    INDEX 01 02:37:34
  TRACK 60 AUDIO
    TITLE "8:cjc139_3007"
    INDEX 01 02:40:17
  TRACK 61 AUDIO
    TITLE "0:"
    INDEX 01 02:42:14
  TRACK 62 AUDIO
    TITLE "7:cjc139_3008"
    INDEX 01 02:44:74
  TRACK 63 AUDIO
    TITLE "0:"
    INDEX 01 02:47:74
  TRACK 64 AUDIO
    TITLE "8:cjc139_3009"
    INDEX 01 02:50:59
  TRACK 65 AUDIO
    TITLE "0:"
    INDEX 01 02:53:41
  TRACK 66 AUDIO
    TITLE "7:cjc139_3010"
    INDEX 01 02:56:28
  TRACK 67 AUDIO
    TITLE "0:"
    INDEX 01 02:59:16
  TRACK 68 AUDIO
    TITLE "8:cjc139_3011"
    INDEX 01 03:01:74
  TRACK 69 AUDIO
    TITLE "0:"
    INDEX 01 03:04:49
  TRACK 70 AUDIO
    TITLE "7:cjc139_3012"
    INDEX 01 03:07:38
  TRACK 71 AUDIO
    TITLE "0:"
    INDEX 01 03:10:40
  TRACK 72 AUDIO
    TITLE "8:cjc139_3013"
    INDEX 01 03:13:26
  TRACK 73 AUDIO
    TITLE "0:"
    INDEX 01 03:16:01
  TRACK 74 AUDIO
    TITLE "7:cjc139_3014"
    INDEX 01 03:18:61
  TRACK 75 AUDIO
    TITLE "0:"
    INDEX 01 03:21:00
  TRACK 76 AUDIO
    TITLE "8:cjc139_3015"
    INDEX 01 03:23:60
  TRACK 77 AUDIO
    TITLE "0:"
    INDEX 01 03:26:17
  TRACK 78 AUDIO
    TITLE "7:cjc139_3016"
    INDEX 01 03:29:04
  TRACK 79 AUDIO
    TITLE "0:"
    INDEX 01 03:31:22
  TRACK 80 AUDIO
    TITLE "8:cjc139_3017"
    INDEX 01 03:34:07
  TRACK 81 AUDIO
    TITLE "0:"
    INDEX 01 03:36:41
  TRACK 82 AUDIO
    TITLE "7:cjc139_3018"
    INDEX 01 03:39:26
  TRACK 83 AUDIO
    TITLE "0:"
    INDEX 01 03:41:50
  TRACK 84 AUDIO
    TITLE "8:cjc139_3019"
    INDEX 01 03:44:33
  TRACK 85 AUDIO
    TITLE "0:"
    INDEX 01 03:47:12
  TRACK 86 AUDIO
    TITLE "7:cjc139_3020"
    INDEX 01 03:50:00
  TRACK 87 AUDIO
    TITLE "0:"
    INDEX 01 03:52:28
  TRACK 88 AUDIO
    TITLE "8:cjc139_3021"
    INDEX 01 03:55:13
  TRACK 89 AUDIO
    TITLE "0:"
    INDEX 01 03:57:41
  TRACK 90 AUDIO
    TITLE "7:cjc139_3022"
    INDEX 01 04:00:28
  TRACK 91 AUDIO
    TITLE "0:"
    INDEX 01 04:02:66
  TRACK 92 AUDIO
    TITLE "8:cjc139_3023"
    INDEX 01 04:05:53
  TRACK 93 AUDIO
    TITLE "0:"
    INDEX 01 04:08:41
  TRACK 94 AUDIO
    TITLE "7:cjc139_3024"
    INDEX 01 04:11:28
  TRACK 95 AUDIO
    TITLE "0:"
    INDEX 01 04:13:56
  TRACK 96 AUDIO
    TITLE "8:cjc139_3025"
    INDEX 01 04:16:43
  TRACK 97 AUDIO
    TITLE "0:"
    INDEX 01 04:18:38
  TRACK 98 AUDIO
    TITLE "7:cjc139_3026"
    INDEX 01 04:21:26
  TRACK 99 AUDIO
    TITLE "0:"
    INDEX 01 04:23:41
  TRACK 100 AUDIO
    TITLE "8:cjc139_3027"
    INDEX 01 04:26:27
  TRACK 101 AUDIO
    TITLE "0:"
    INDEX 01 04:28:48
  TRACK 102 AUDIO
    TITLE "7:cjc139_3028"
    INDEX 01 04:31:32
  TRACK 103 AUDIO
    TITLE "0:"
    INDEX 01 04:33:69
  TRACK 104 AUDIO
    TITLE "8:cjc139_3029"
    INDEX 01 04:36:53
  TRACK 105 AUDIO
    TITLE "0:"
    INDEX 01 04:38:54
  TRACK 106 AUDIO
    TITLE "7:cjc139_3030"
    INDEX 01 04:41:39
  TRACK 107 AUDIO
    TITLE "0:"
    INDEX 01 04:43:67
  TRACK 108 AUDIO
    TITLE "8:cjc139_3031"
    INDEX 01 04:46:54
  TRACK 109 AUDIO
    TITLE "0:"
    INDEX 01 04:49:26
  TRACK 110 AUDIO
    TITLE "7:cjc139_3032"
    INDEX 01 04:52:11
  TRACK 111 AUDIO
    TITLE "0:"
    INDEX 01 04:53:73
  TRACK 112 AUDIO
    TITLE "8:cjc139_3033"
    INDEX 01 04:56:58
  TRACK 113 AUDIO
    TITLE "0:"
    INDEX 01 04:58:70
  TRACK 114 AUDIO
    TITLE "7:cjc139_3034"
    INDEX 01 05:01:57
  TRACK 115 AUDIO
    TITLE "0:"
    INDEX 01 05:04:02
  TRACK 116 AUDIO
    TITLE "8:cjc139_3035"
    INDEX 01 05:06:60
  TRACK 117 AUDIO
    TITLE "0:"
    INDEX 01 05:09:41
  TRACK 118 AUDIO
    TITLE "7:cjc139_3036"
    INDEX 01 05:12:25
  TRACK 119 AUDIO
    TITLE "0:"
    INDEX 01 05:14:73
  TRACK 120 AUDIO
    TITLE "8:cjc139_3037"
    INDEX 01 05:17:58
  TRACK 121 AUDIO
    TITLE "0:"
    INDEX 01 05:20:62
  TRACK 122 AUDIO
    TITLE "7:cjc139_3038"
    INDEX 01 05:23:49
  TRACK 123 AUDIO
    TITLE "0:"
    INDEX 01 05:25:42
  TRACK 124 AUDIO
    TITLE "8:cjc139_3039"
    INDEX 01 05:28:28
  TRACK 125 AUDIO
    TITLE "0:"
    INDEX 01 05:30:35
  TRACK 126 AUDIO
    TITLE "7:cjc139_3040"
    INDEX 01 05:33:20
  TRACK 127 AUDIO
    TITLE "0:"
    INDEX 01 05:35:17
  TRACK 128 AUDIO
    TITLE "8:cjc139_3041"
    INDEX 01 05:38:03
  TRACK 129 AUDIO
    TITLE "0:"
    INDEX 01 05:39:67
  TRACK 130 AUDIO
    TITLE "7:cjc139_3042"
    INDEX 01 05:42:54
  TRACK 131 AUDIO
    TITLE "0:"
    INDEX 01 05:45:03
  TRACK 132 AUDIO
    TITLE "8:cjc139_3043"
    INDEX 01 05:47:63
  TRACK 133 AUDIO
    TITLE "0:"
    INDEX 01 05:50:28
  TRACK 134 AUDIO
    TITLE "7:cjc139_3044"
    INDEX 01 05:53:15
  TRACK 135 AUDIO
    TITLE "0:"
    INDEX 01 05:55:25
  TRACK 136 AUDIO
    TITLE "8:cjc139_3045"
    INDEX 01 05:58:12
  TRACK 137 AUDIO
    TITLE "0:"
    INDEX 01 06:00:34
  TRACK 138 AUDIO
    TITLE "7:cjc139_3046"
    INDEX 01 06:03:21
  TRACK 139 AUDIO
    TITLE "0:"
    INDEX 01 06:05:59
  TRACK 140 AUDIO
    TITLE "8:cjc139_3047"
    INDEX 01 06:08:42
  TRACK 141 AUDIO
    TITLE "0:"
    INDEX 01 06:10:62
  TRACK 142 AUDIO
    TITLE "7:cjc139_3048"
    INDEX 01 06:13:49
  TRACK 143 AUDIO
    TITLE "0:"
    INDEX 01 06:16:63
  TRACK 144 AUDIO
    TITLE "8:cjc139_3049"
    INDEX 01 06:19:49
  TRACK 145 AUDIO
    TITLE "0:"
    INDEX 01 06:22:55
  TRACK 146 AUDIO
    TITLE "7:cjc139_3050"
    INDEX 01 06:25:40
  TRACK 147 AUDIO
    TITLE "0:"
    INDEX 01 06:28:09
  TRACK 148 AUDIO
    TITLE "8:cjc139_3051"
    INDEX 01 06:30:73
  TRACK 149 AUDIO
    TITLE "0:"
    INDEX 01 06:33:73
  TRACK 150 AUDIO
    TITLE "7:cjc139_3052"
    INDEX 01 06:36:60
  TRACK 151 AUDIO
    TITLE "0:"
    INDEX 01 06:38:47
  TRACK 152 AUDIO
    TITLE "8:cjc139_3053"
    INDEX 01 06:41:31
  TRACK 153 AUDIO
    TITLE "0:"
    INDEX 01 06:43:46
  TRACK 154 AUDIO
    TITLE "7:cjc139_3054"
    INDEX 01 06:46:29
  TRACK 155 AUDIO
    TITLE "0:"
    INDEX 01 06:48:41
  TRACK 156 AUDIO
    TITLE "8:cjc139_3055"
    INDEX 01 06:51:26
  TRACK 157 AUDIO
    TITLE "0:"
    INDEX 01 06:53:56
  TRACK 158 AUDIO
    TITLE "7:cjc139_3056"
    INDEX 01 06:56:41
  TRACK 159 AUDIO
    TITLE "0:"
    INDEX 01 06:58:59
  TRACK 160 AUDIO
    TITLE "8:cjc139_3057"
    INDEX 01 07:01:44
  TRACK 161 AUDIO
    TITLE "0:"
    INDEX 01 07:03:60
  TRACK 162 AUDIO
    TITLE "7:cjc139_3058"
    INDEX 01 07:06:45
  TRACK 163 AUDIO
    TITLE "0:"
    INDEX 01 07:09:06
  TRACK 164 AUDIO
    TITLE "8:cjc139_3059"
    INDEX 01 07:11:66
  TRACK 165 AUDIO
    TITLE "0:"
    INDEX 01 07:14:54
  TRACK 166 AUDIO
    TITLE "7:cjc139_3060"
    INDEX 01 07:17:39
  TRACK 167 AUDIO
    TITLE "0:"
    INDEX 01 07:20:43
  TRACK 168 AUDIO
    TITLE "8:cjc139_3061"
    INDEX 01 07:23:26
  TRACK 169 AUDIO
    TITLE "0:"
    INDEX 01 07:25:72
  TRACK 170 AUDIO
    TITLE "7:cjc139_3062"
    INDEX 01 07:28:58
  TRACK 171 AUDIO
    TITLE "0:"
    INDEX 01 07:32:07
  TRACK 172 AUDIO
    TITLE "8:cjc139_3063"
    INDEX 01 07:34:67
  TRACK 173 AUDIO
    TITLE "0:"
    INDEX 01 07:37:49
  TRACK 174 AUDIO
    TITLE "7:cjc139_3064"
    INDEX 01 07:40:32
  TRACK 175 AUDIO
    TITLE "0:"
    INDEX 01 07:43:34
  TRACK 176 AUDIO
    TITLE "8:cjc139_3065"
    INDEX 01 07:46:21
  TRACK 177 AUDIO
    TITLE "0:"
    INDEX 01 07:49:31
  TRACK 178 AUDIO
    TITLE "7:cjc139_3066"
    INDEX 01 07:52:16
  TRACK 179 AUDIO
    TITLE "0:"
    INDEX 01 07:55:16
  TRACK 180 AUDIO
    TITLE "8:cjc139_3067"
    INDEX 01 07:58:01
  TRACK 181 AUDIO
    TITLE "0:"
    INDEX 01 08:00:56
  TRACK 182 AUDIO
    TITLE "7:cjc139_3068"
    INDEX 01 08:03:39
  TRACK 183 AUDIO
    TITLE "0:"
    INDEX 01 08:06:71
  TRACK 184 AUDIO
    TITLE "8:cjc139_3069"
    INDEX 01 08:09:59
  TRACK 185 AUDIO
    TITLE "0:"
    INDEX 01 08:12:20
  TRACK 186 AUDIO
    TITLE "7:cjc139_3070"
    INDEX 01 08:15:05
  TRACK 187 AUDIO
    TITLE "0:"
    INDEX 01 08:18:50
  TRACK 188 AUDIO
    TITLE "8:cjc139_3071"
    INDEX 01 08:21:33
  TRACK 189 AUDIO
    TITLE "0:"
    INDEX 01 08:24:47
  TRACK 190 AUDIO
    TITLE "7:cjc139_3072"
    INDEX 01 08:27:34
  TRACK 191 AUDIO
    TITLE "0:"
    INDEX 01 08:31:63
  TRACK 192 AUDIO
    TITLE "8:cjc139_3073"
    INDEX 01 08:34:47
  TRACK 193 AUDIO
    TITLE "0:"
    INDEX 01 08:38:00
  TRACK 194 AUDIO
    TITLE "7:cjc139_3074"
    INDEX 01 08:40:60
  TRACK 195 AUDIO
    TITLE "0:"
    INDEX 01 08:43:21
  TRACK 196 AUDIO
    TITLE "8:cjc139_3075"
    INDEX 01 08:46:07
  TRACK 197 AUDIO
    TITLE "0:"
    INDEX 01 08:49:10
